<?xml version="1.0" encoding="UTF-8"?>
<svg id="Layer_1" data-name="Layer 1" xmlns="http://www.w3.org/2000/svg" xmlns:xlink="http://www.w3.org/1999/xlink" viewBox="0 0 509.15 514.51">
  <defs>
    <style>
      .cls-1 {
        fill: url(#Polished_Brass);
      }

      .cls-2 {
        fill: #1c0708;
      }

      .cls-3 {
        fill: url(#Polished_Brass-3);
      }

      .cls-4 {
        fill: url(#Polished_Brass-5);
      }

      .cls-5 {
        fill: url(#Polished_Brass-4);
      }

      .cls-6 {
        fill: url(#Polished_Brass-2);
      }
    </style>
    <linearGradient id="Polished_Brass" data-name="Polished Brass" x1="-160.23" y1="85.56" x2="582.4" y2="392.94" gradientUnits="userSpaceOnUse">
      <stop offset="0" stop-color="#ebc17d"/>
      <stop offset=".19" stop-color="#edd089"/>
      <stop offset=".41" stop-color="#f4e8d9"/>
      <stop offset=".73" stop-color="#c08329"/>
      <stop offset=".95" stop-color="#eabe81"/>
    </linearGradient>
    <linearGradient id="Polished_Brass-2" data-name="Polished Brass" x1="-157.11" y1="78.04" x2="585.51" y2="385.42" xlink:href="#Polished_Brass"/>
    <linearGradient id="Polished_Brass-3" data-name="Polished Brass" x1="-180.37" y1="134.22" x2="562.26" y2="441.6" xlink:href="#Polished_Brass"/>
    <linearGradient id="Polished_Brass-4" data-name="Polished Brass" x1="-166.04" y1="99.61" x2="576.58" y2="407" xlink:href="#Polished_Brass"/>
    <linearGradient id="Polished_Brass-5" data-name="Polished Brass" x1="-162.26" y1="90.48" x2="580.36" y2="397.86" xlink:href="#Polished_Brass"/>
  </defs>
  <g>
    <path class="cls-1" d="M476.96,235.8c-.27,0-.54.03-.81.04-2.14-22.49-7.64-44.36-16.47-65.23-11.21-26.51-27.26-50.31-47.7-70.75-20.44-20.44-44.25-36.49-70.75-47.7-20.87-8.83-42.74-14.34-65.23-16.47.01-.27.04-.54.04-.81,0-11.83-9.63-21.46-21.46-21.46s-21.46,9.63-21.46,21.46c0,.27.03.54.04.81-22.49,2.14-44.36,7.64-65.23,16.47-26.51,11.21-50.31,27.26-70.75,47.7-20.44,20.44-36.49,44.25-47.7,70.75-8.83,20.87-14.34,42.74-16.47,65.23-.27-.01-.54-.04-.81-.04-11.83,0-21.46,9.63-21.46,21.46s9.63,21.46,21.46,21.46c.27,0,.54-.03.81-.04,2.14,22.49,7.64,44.36,16.47,65.23,11.21,26.51,27.26,50.31,47.7,70.75,20.44,20.44,44.25,36.49,70.75,47.7,20.87,8.83,42.74,14.34,65.23,16.47-.01.27-.04.54-.04.81,0,11.83,9.63,21.46,21.46,21.46s21.46-9.63,21.46-21.46c0-.27-.03-.54-.04-.81,22.49-2.14,44.36-7.64,65.23-16.47,26.51-11.21,50.31-27.26,70.75-47.7,20.44-20.44,36.49-44.25,47.7-70.75,8.83-20.87,14.34-42.74,16.47-65.23.27.01.54.04.81.04,11.83,0,21.46-9.63,21.46-21.46s-9.63-21.46-21.46-21.46ZM475.72,235.86c-11.18.65-20.1,9.87-20.2,21.19h-111.19c-.06-26.45-11.63-50.25-29.94-66.65l43.68-49.12c2.91,2.57,6.72,4.14,10.9,4.14,9.11,0,16.51-7.41,16.51-16.51s-7.41-16.51-16.51-16.51-16.51,7.41-16.51,16.51c0,4.81,2.08,9.14,5.38,12.16l-43.68,49.13c-15.81-14.06-36.6-22.63-59.36-22.69V56.32c11.32-.11,20.54-9.02,21.19-20.2,105.47,10.12,189.63,94.28,199.75,199.75ZM254.58,346.59c-49.26,0-89.34-40.08-89.34-89.34s40.08-89.34,89.34-89.34,89.34,40.08,89.34,89.34-40.08,89.34-89.34,89.34ZM233.18,36.11c.65,11.18,9.87,20.09,21.18,20.2v111.19c-22.85.05-43.7,8.69-59.54,22.85l-43.77-49.23c3.3-3.02,5.38-7.35,5.38-12.16,0-9.1-7.41-16.51-16.51-16.51s-16.51,7.41-16.51,16.51,7.41,16.51,16.51,16.51c4.18,0,7.98-1.57,10.89-4.13l43.77,49.23c-18.21,16.4-29.7,40.13-29.76,66.49H53.64c-.11-11.32-9.02-20.54-20.2-21.19C43.56,130.4,127.72,46.24,233.18,36.11ZM33.43,278.65c11.18-.65,20.09-9.87,20.2-21.18h111.19c.06,26.54,11.71,50.39,30.13,66.8l-42.61,47.92c-2.9-2.53-6.69-4.08-10.84-4.08-9.1,0-16.51,7.41-16.51,16.51s7.41,16.51,16.51,16.51,16.51-7.41,16.51-16.51c0-4.84-2.11-9.19-5.44-12.21l42.61-47.92c15.79,13.96,36.5,22.48,59.17,22.53v111.19c-11.31.11-20.53,9.02-21.18,20.2-105.47-10.12-189.63-94.28-199.75-199.75ZM275.97,478.4c-.65-11.18-9.87-20.1-21.19-20.2v-111.19c22.59-.05,43.23-8.5,59-22.37l43.16,48.54c-3.33,3.02-5.44,7.37-5.44,12.22,0,9.1,7.41,16.51,16.51,16.51s16.51-7.41,16.51-16.51-7.41-16.51-16.51-16.51c-4.15,0-7.93,1.55-10.83,4.08l-43.15-48.53c18.52-16.41,30.24-40.33,30.31-66.95h111.19c.11,11.31,9.02,20.53,20.2,21.18-10.12,105.47-94.28,189.63-199.75,199.75Z"/>
    <path class="cls-6" d="M253.99,291.4h.35c17.31,0,32.03-12.04,36.63-28.43l-36.4-60.68-36.8,61.34c4.73,16.02,19.52,27.77,36.21,27.77ZM251.44,239c.74-1.03,1.38-1.9,1.85-2.55.54-.72.89-1.17.97-1.27l.33-.43.31.43c.56.72,13.69,17.89,13.69,25.46s-6.28,14.02-14,14.02c-.52,0-1.01-.02-1.52-.1-.53-.04-1.07-.12-1.58-.27-6.26-1.4-10.91-7-10.91-13.65,0-5.48,6.88-15.98,10.87-21.64Z"/>
    <path class="cls-3" d="M196.34,299.37h19.77c-4.41-4.24-8.1-9.23-10.91-14.78l-8.87,14.78Z"/>
    <path class="cls-5" d="M292.42,299.37h20.39l-9.21-15.36c-2.76,5.73-6.54,10.92-11.18,15.36Z"/>
    <path class="cls-4" d="M303.23,243.75c-3.61-9.31-10.41-17.53-19.27-22.26,6.94,8.98,11.07,19.5,10.92,30.92-.03,4.64-.82,9.14-2.25,13.34-5.46,16.16-20.35,28.07-38.3,28.07h-.35c-17.22,0-32.24-11.63-37.86-27.44-1.05-2.97-1.78-6.08-2.12-9.29-.76-6.33-.12-12.85,1.76-18.94,1.18-3.75,2.82-7.42,4.84-10.79,1.17-2.01,2.55-3.92,3.98-5.86-6.56,3.49-12.05,8.94-15.87,15.33-8.24,13.51-8.7,31.03-2.02,45.3.11.23.21.46.33.69,3.2,6.59,7.55,12.13,12.67,16.57,9.68,8.41,22.1,12.85,34.67,12.85s24.4-4.14,34.48-12.85c.07-.06.14-.11.2-.17,5.66-4.95,10.09-11.03,13.06-17.7,5.24-11.75,5.99-25.33,1.14-37.75Z"/>
  </g>
  <path class="cls-2" d="M147.86,379.23c-.21,0-2.86.05-4.2.07l3.24-6.41.24-.47h-.29c-.9.02-1.65.04-2.39.05-.77.02-1.54.03-2.48.05h-.1s-1.88,3.5-1.88,3.5l.31.18,1.87-3.09c.4,0,.66,0,.93-.01.26,0,.52,0,.93-.01l2.04-.02-3.89,7.13h.3s2.34.04,3.72.06l-5.91,7.91c.99-2.91,2.1-6.15,2.12-6.23l.08-.23h-.25c-.71-.02-1.42-.03-2.15-.03-.92,0-1.91,0-2.81.02.66-1.32,1.85-3.56,1.86-3.58l-.3-.19-4.04,5.63h.35c.66,0,1.59,0,2.52-.01.82,0,1.64,0,2.28,0l-4.07,13.28.64-.92c.87-1.24,3.36-4.8,5.84-8.34,2.38-3.39,4.74-6.77,5.64-8.05l.2-.28h-.35Z"/>
  <path class="cls-2" d="M371.97,129.82c.47,0,.94-.02,1.41-.04,1.33,1.05,5.34,4.23,5.66,4.48-.19-.24-2.24-2.82-3.62-4.56,2.26-.11,4.51-.31,6.7-.65-2.16-.33-4.36-.53-6.57-.64l3.68-4.61-5.65,4.52c-.55-.02-1.1-.03-1.65-.04-.28-.9-1-1.61-1.92-1.87-.01-.57-.03-1.15-.04-1.72h0c1.14-1.45,4.14-5.24,4.39-5.55-.23.18-2.74,2.17-4.47,3.55-.11-2.18-.31-4.36-.64-6.54-.33,2.18-.52,4.37-.63,6.55l-4.7-3.76,4.54,5.68.08.09c-.02.56-.03,1.12-.04,1.69-.91.26-1.64.96-1.92,1.87-.53,0-1.06.03-1.59.04-1.29-1.02-5.39-4.27-5.71-4.53.19.24,2.29,2.89,3.65,4.62-2.12.12-4.23.31-6.34.63,2.05.31,4.11.5,6.17.61l-3.67,4.59,5.62-4.5c.61.02,1.21.04,1.82.06.11.43.31.83.61,1.17.37.43.85.73,1.38.87,0,.51.02,1.03.04,1.55h0c-1.17,1.48-4.12,5.21-4.36,5.51.23-.18,2.72-2.16,4.45-3.53.11,2.14.31,4.26.63,6.35.33-2.11.52-4.27.63-6.42l4.74,3.79-4.54-5.68-.11-.14c.02-.48.03-.96.04-1.44.96-.27,1.73-1.04,1.97-2.03ZM367.98,130.22c-.1-.12-.19-.24-.25-.38-.12-.26-.17-.54-.15-.82.02-.28.11-.53.24-.75.15-.24.37-.45.63-.59.23-.13.5-.2.79-.2h.12c.24.02.48.09.68.2.26.14.47.34.62.59.18.28.26.63.24.98-.02.21-.07.4-.16.58-.15.33-.41.59-.71.75-.27.15-.58.23-.9.2-.23-.02-.46-.08-.66-.19-.18-.09-.34-.23-.48-.38Z"/>
  <g>
    <path class="cls-2" d="M372.9,384.92c1.38-2.6,4.42-8.33,5-9.42-1.14.6-6.82,3.61-9.42,4.99v-5c-.81.81-3.44,3.44-4.3,4.3-2.96,3.14-7.68,6.21-5.56,11.14-.42-2.11.3-4.25,1.9-5.58.55-.48,1.13-.91,1.61-1.46,1.4-1.43,3.29-3.3,4.91-4.92,0,1.49,0,3.39,0,3.91.11-.06,4.64-2.46,7.4-3.92-1.47,2.76-3.89,7.31-3.93,7.4.53,0,2.43,0,3.92,0-1.8,1.8-4.96,4.95-4.96,4.95-1.04.94-1.71,2.23-3,2.88-1.18.67-2.67.88-4.1.57,2.04.98,4.75.58,6.49-.96,1.22-.9,6.6-6.5,7.81-7.65l1.22-1.22c-.88,0-3.35,0-5,0Z"/>
    <path class="cls-2" d="M368.39,388.93c0-2.27-1.84-4.1-4.1-4.1s-4.1,1.84-4.1,4.1,1.84,4.1,4.1,4.1,4.1-1.84,4.1-4.1Z"/>
  </g>
  <g>
    <path class="cls-2" d="M151.83,128.73c-.09-1.84-.56-3.65-1.45-5.23-.24-.49-.57-.92-.87-1.37-.35-.41-.66-.85-1.06-1.22-.74-.78-1.61-1.42-2.53-1.94-.91-.55-1.92-.9-2.92-1.17-1.02-.25-2.06-.34-3.09-.32-2.07.06-4.08.72-5.76,1.83,1.78-.95,3.79-1.38,5.75-1.25.98.07,1.94.26,2.85.58.9.34,1.78.75,2.55,1.32.77.55,1.49,1.19,2.07,1.93.31.35.55.76.82,1.14.21.42.47.81.63,1.25.53,1.19.77,2.47.8,3.75l-1.03-.78.98,6.42,3.92-5.19-1.64.26Z"/>
    <path class="cls-2" d="M133.89,137.55c-1.87-1.3-3.21-3.23-3.77-5.37-.43-1.61-.43-3.3-.06-4.9l.82.98.46-6.48-4.96,4.19,1.62.11c-.45,2.21-.34,4.53.42,6.64.86,2.47,2.64,4.57,4.84,5.84,2.21,1.27,4.77,1.78,7.23,1.52,2.47-.26,4.77-1.39,6.53-3.03-1.89,1.49-4.22,2.39-6.57,2.43-2.34.05-4.67-.64-6.55-1.93Z"/>
    <path class="cls-2" d="M133.12,128.72l3.77.46c.07.46.25.89.52,1.26-1.1,1.4-2.23,2.84-2.34,2.99l2.99-2.34c.37.27.8.45,1.26.52l.45,3.77.45-3.77c.47-.07.9-.25,1.27-.52l2.98,2.34-2.34-2.98c.27-.37.45-.8.52-1.27l3.77-.45-3.77-.45c-.07-.47-.25-.9-.52-1.27l2.34-2.98-2.98,2.34c-.37-.27-.79-.45-1.26-.52-.21-1.77-.44-3.59-.46-3.77l-.46,3.77c-.46.07-.89.25-1.26.52-1.4-1.1-2.84-2.23-2.99-2.34l2.34,2.99c-.27.36-.44.79-.52,1.26-1.77.21-3.59.44-3.77.46Z"/>
  </g>
  <path class="cls-2" d="M245.9,46.9c3.16,2.73,6.69,3.18,8.53,3.2,1.82-.03,5.34-.48,8.5-3.2,3.39-2.92,4.21-6.69,4.41-8.17.15-1.1.16-2.16.05-3.15-.03-.43-.1-.86-.18-1.26-.86-4.14-3.42-6.81-3.71-7.1l-.52-.52-.32.66c-.25.52-.51,1.03-.77,1.55-.42-1.68-1.2-3.76-2.64-5.83-1.22-1.75-2.74-3.26-4.53-4.49l-.29-.2-.3.2c-1.79,1.22-3.32,2.73-4.54,4.49-1.24,1.78-2.1,3.75-2.63,5.87-.27-.52-.53-1.04-.8-1.58l-.33-.67-.52.54c-.66.69-2.88,3.24-3.69,7.03-.08.41-.15.82-.2,1.26-.12,1.07-.11,2.15.05,3.2.2,1.48,1.02,5.25,4.41,8.17ZM246.71,30.71c.17.32.34.64.51.96l.89,1.72.25-1.55c.25-1.5.88-3.76,2.5-6.03.96-1.34,2.16-2.52,3.56-3.51,1.38.96,2.57,2.14,3.55,3.51,1.28,1.78,2.14,3.86,2.49,6.03l.24,1.48.73-1.31c.15-.27.29-.54.43-.81l.35-.67-.03-.17c-.03-.19-.07-.4-.11-.61.51.55,1.93,2.21,2.69,4.64.11.37.2.76.27,1.18.21,1.06.23,2.17.07,3.29-.23,1.49-1,4.34-3.66,6.58-1.91,1.61-4.42,2.53-7.04,2.57-2.63-.05-5.14-.96-7.06-2.57-2.8-2.36-3.48-5.38-3.64-6.58-.16-1.1-.14-2.22.08-3.33.09-.48.18-.83.3-1.18.77-2.51,2.25-4.19,2.71-4.66-.05.23-.11.45-.15.68l-.03.18.09.16Z"/>
  <g>
    <path class="cls-2" d="M255.58,466.39c1.24,0,2.44.25,3.55.75l.19.08.19-.06c.79-.25,1.54-.39,2.29-.41l1.55-.06-1.26-.91c-1.88-1.35-4.09-2.06-6.41-2.06-6.12,0-11.1,4.99-11.1,11.12,0,1.3.22,2.58.66,3.79.26.7.55,1.31.95,1.97.06.1.12.2.19.29l.14.14c.53.36,1.04.64,1.6.89l2.16.96-1.54-1.79c-.3-.36-.56-.7-.78-1.07-.35-.57-.61-1.11-.8-1.67-.35-.95-.53-1.97-.53-3.02,0-4.93,4.02-8.94,8.95-8.94Z"/>
    <path class="cls-2" d="M270.55,479.21c-.08-.59-.19-1.1-.32-1.55-1.32-4.81-5.72-8.16-10.71-8.16-2.16,0-4.25.63-6.06,1.82l-.14.13c-.34.47-.63,1-.88,1.57l-.9,2.06,1.73-1.44c1.64-1.37,3.64-2.1,5.76-2.1,4.03,0,7.57,2.71,8.62,6.62.14.47.22.98.27,1.39.03.32.05.63.05.95,0,1.29-.25,2.49-.74,3.55l-.09.19.06.2c.25.8.38,1.55.41,2.31l.06,1.56.91-1.27c1.35-1.89,2.06-4.11,2.06-6.41,0-.47-.03-.95-.08-1.4h0Z"/>
    <path class="cls-2" d="M255.94,488.01l.15-.15c.37-.55.66-1.07.9-1.6l.99-2.17-1.82,1.55c-1.59,1.36-3.63,2.11-5.74,2.11-4.65,0-8.49-3.49-8.93-8.12-.03-.27-.05-.56-.05-.85,0-.27.02-.54.05-.82.07-.91.31-1.84.7-2.76l.08-.18-.06-.19c-.23-.75-.37-1.5-.41-2.28l-.09-1.53-.88,1.25c-1.11,1.57-1.79,3.43-1.97,5.37-.03.34-.05.68-.05,1.04,0,.27.02.56.03.83.43,5.77,5.28,10.29,11.05,10.29,2.13,0,4.21-.62,6.03-1.78Z"/>
    <path class="cls-2" d="M263.05,478.4l-.16-.15s-.11-.08-.18-.11c-.43-.3-.93-.57-1.4-.76l-2.01-.79,1.41,1.63c.19.23.37.46.55.73.34.5.59.95.78,1.43.51,1.1.76,2.3.76,3.58,0,4.94-4.01,8.95-8.94,8.95-1.23,0-2.47-.26-3.59-.75l-.18-.08-.19.06c-.73.23-1.49.37-2.28.41l-1.5.09,1.22.88c1.86,1.34,4.08,2.04,6.41,2.04,6.12,0,11.1-4.98,11.1-11.1,0-1.64-.34-3.19-1-4.59-.22-.5-.49-1-.8-1.47Z"/>
  </g>
  <path class="cls-2" d="M477.62,242.24l-.63-.89-.67.88c-.06.08-.33.43-.75.99l-1.41,1.95c-3.82,5.42-8.38,12.73-8.38,16.78,0,5.19,3.67,9.77,8.69,10.9.39.11.82.18,1.27.22.37.06.75.08,1.24.08,6.17,0,11.18-5.02,11.18-11.2s-10.03-19.05-10.53-19.71ZM485.66,262.3c0,4.8-3.9,8.71-8.69,8.71-.32,0-.62-.01-.95-.06-.49-.05-.89-.12-1.28-.25-3.81-1-6.47-4.45-6.47-8.39,0-2.48,2.4-7.26,6.75-13.48.72-1.03,1.32-1.85,1.72-2.38.09-.12.16-.22.23-.31,3.33,4.39,8.7,12.46,8.7,16.17Z"/>
  <polygon class="cls-2" points="36.5 249 32.19 241.81 32.19 241.81 32.19 241.81 17.1 266.96 32.19 247.22 39.73 257.09 47.28 266.96 47.28 266.96 47.28 266.96 36.5 249"/>
</svg>